<?xml version="1.0" encoding="UTF-8" standalone="no"?>
<svg
   xmlns:dc="http://purl.org/dc/elements/1.1/"
   xmlns:cc="http://creativecommons.org/ns#"
   xmlns:rdf="http://www.w3.org/1999/02/22-rdf-syntax-ns#"
   xmlns:svg="http://www.w3.org/2000/svg"
   xmlns="http://www.w3.org/2000/svg"
   version="1.1"
   id="svg4371"
   viewBox="0 0 100 100"
   height="100"
   width="100">
  <defs
     id="defs4373" />
  <metadata
     id="metadata4376">
    <rdf:RDF>
      <cc:Work
         rdf:about="">
        <dc:format>image/svg+xml</dc:format>
        <dc:type
           rdf:resource="http://purl.org/dc/dcmitype/StillImage" />
        <dc:title></dc:title>
      </cc:Work>
    </rdf:RDF>
  </metadata>
  <g
     transform="translate(0,-952.36216)"
     id="layer1">
    <path
       id="rect4566"
       d="m 11.5,952.36212 c -6.371,0 -11.5,5.129 -11.5,11.5 l 0,77.00008 c 0,6.371 5.129,11.5 11.5,11.5 l 77,0 c 6.371,0 11.5,-5.129 11.5,-11.5 l 0,-77.00008 c 0,-6.371 -5.129,-11.5 -11.5,-11.5 l -77,0 z m 9.300781,16.6797 a 8.3000002,7.7097077 0 0 1 8.298828,7.71092 8.3000002,7.7097077 0 0 1 -8.298828,7.70899 A 8.3000002,7.7097077 0 0 1 12.5,976.75274 8.3000002,7.7097077 0 0 1 20.800781,969.04182 Z M 12.5,989.86212 l 16.599609,0 0,45.69928 -16.599609,0 0,-45.69928 z m 29.300781,0.0996 16.560549,0 0,6.97267 c 2.36738,-3.71745 6.7439,-6.32011 11.57226,-6.64063 1.07328,-0.0719 2.04609,-0.1057 2.9375,-0.0957 2.67424,0.0254 4.61285,0.43085 6.30078,1.36133 1.97278,1.08741 3.68386,2.96898 4.76172,4.71678 0.68797,0.25634 2.07187,4.17533 2.6836,6.38483 0.54128,1.9553 0.87695,9.3652 0.87695,9.3652 0,0 0.0146,23.4432 0,23.5352 l -16.5625,0 0,-25.5117 0,-0.1661 -0.004,0 a 6.3355188,7.6521735 0 0 0 -6.33203,-7.4863 6.3355188,7.6521735 0 0 0 -6.23437,6.3867 l 0,26.7774 -16.560549,0 0,-45.59968 z"
       style="fill:#ffffff;fill-opacity:1;fill-rule:evenodd;stroke:none;stroke-width:1.58599997;stroke-miterlimit:4;stroke-dasharray:none" />
  </g>
</svg>
