<?xml version="1.0" encoding="UTF-8" standalone="no"?>
<svg
   xmlns:dc="http://purl.org/dc/elements/1.1/"
   xmlns:cc="http://creativecommons.org/ns#"
   xmlns:rdf="http://www.w3.org/1999/02/22-rdf-syntax-ns#"
   xmlns:svg="http://www.w3.org/2000/svg"
   xmlns="http://www.w3.org/2000/svg"
   version="1.1"
   id="svg4609"
   viewBox="0 0 100 100"
   height="100"
   width="100">
  <defs
     id="defs4611" />
  <metadata
     id="metadata4614">
    <rdf:RDF>
      <cc:Work
         rdf:about="">
        <dc:format>image/svg+xml</dc:format>
        <dc:type
           rdf:resource="http://purl.org/dc/dcmitype/StillImage" />
        <dc:title></dc:title>
      </cc:Work>
    </rdf:RDF>
  </metadata>
  <g
     transform="translate(0,-952.36216)"
     id="layer1">
    <g
       transform="translate(50,-50)"
       id="layer1-4">
      <path
         id="rect4681"
         d="m -38.5,1002.3622 c -6.371,0 -11.5,5.129 -11.5,11.5 l 0,77 c 0,6.371 5.129,11.5 11.5,11.5 l 77,0 c 6.371,0 11.5,-5.129 11.5,-11.5 l 0,-77 c 0,-6.371 -5.129,-11.5 -11.5,-11.5 l -77,0 z m 41.3593752,12.5 c 10.9471088,0 19.5570158,2.9002 25.8300778,8.6992 5.873309,5.4768 8.810547,12.5799 8.810547,21.3106 0,7.3453 -2.105567,13.6266 -6.318359,18.8457 -4.182042,5.1868 -8.871558,7.7812 -14.06836,7.7812 -3.04428,0 -5.28911,-0.7573 -6.734375,-2.2715 -1.4452638,-1.5464 -2.1679678,-3.3981 -2.1679678,-5.5566 0,-0.3544 0.0303,-0.7247 0.0918,-1.1113 0.0615,-0.3866 0.138218,-0.7902 0.230469,-1.209 -1.629766,3.7049 -3.690866,6.3305 -6.181641,7.8769 -2.49077398,1.5142 -5.056645,2.2715 -7.701171,2.2715 -3.782288,0 -6.8587892,-1.4335 -9.2265632,-4.3008 -2.337023,-2.8672 -3.505859,-6.5561 -3.505859,-11.0664 0,-6.4111 2.000507,-12.066 5.998047,-16.9629 4.0282902,-4.8969 8.3483912,-7.3437 12.96093722,-7.3437 3.13653098,0 5.71852698,0.9488 7.74804698,2.8496 2.0602708,1.9008 3.1523888,4.1893 3.2753908,6.8633 l 2.30664,-8.1192 6.779297,0 -6.134766,21.1661 c -0.461254,1.643 -0.798419,2.9641 -1.013671,3.9628 -0.215253,0.9988 -0.322266,1.8851 -0.322266,2.6582 0,1.4498 0.413882,2.513 1.244141,3.1895 0.861008,0.6443 1.829989,0.9668 2.90625,0.9668 3.505535,0 6.642628,-1.9182 9.410156,-5.752 2.798278,-3.8337 4.197266,-8.8437 4.197266,-15.0293 0,-7.4742 -2.491107,-13.3372 -7.472657,-17.5898 -4.981549,-4.2848 -11.685744,-6.4258 -20.1113278,-6.4258 -11.685116,0 -20.6180162,3.5745 -26.7988282,10.7266 -5.289053,6.0889 -7.933594,13.7411 -7.933594,22.9551 0,8.0541 2.521403,14.82 7.564453,20.2968 5.904059,6.4756 14.3141102,9.7129 25.2304692,9.7129 5.104551,0 9.8566128,-0.8384 14.2539058,-2.5136 4.397294,-1.7075 8.424698,-3.9941 12.083985,-6.8614 l 3.044922,4.3496 c -2.767528,2.5774 -6.903899,4.9929 -12.408204,7.2481 -5.504304,2.2551 -11.5625118,3.3828 -18.17382778,3.3828 -12.85362822,0 -22.75355522,-4.2048 -29.70312522,-12.6133 -5.565805,-6.7332 -8.349609,-14.5125 -8.349609,-23.3398 0,-10.5026 3.38337,-19.4262 10.148438,-26.7715 7.503074,-8.183 17.5725612,-12.2754 30.2109372,-12.2754 z m -0.322266,21.9883 c -3.50553498,0 -6.549786,2.1742 -9.132812,6.5234 -2.552276,4.317 -3.8281252,8.6176 -3.8281252,12.9024 0,3.1572 0.6601592,5.5728 1.9824222,7.248 1.322263,1.643 2.983652,2.4649 4.982422,2.4649 4.15129102,0 7.379274,-2.528 9.685546,-7.586 2.337024,-5.0902 3.50586,-9.6819 3.50586,-13.7734 0,-1.9974 -0.645987,-3.7847 -1.9375,-5.3633 -1.260763,-1.6108 -3.01304,-2.416 -5.257813,-2.416 z"
         style="fill:#ffffff;fill-opacity:1;fill-rule:evenodd;stroke:none;stroke-width:1.58599997;stroke-miterlimit:4;stroke-dasharray:none" />
    </g>
  </g>
</svg>
