<?xml version="1.0" encoding="UTF-8" standalone="no"?>
<svg
   xmlns:dc="http://purl.org/dc/elements/1.1/"
   xmlns:cc="http://creativecommons.org/ns#"
   xmlns:rdf="http://www.w3.org/1999/02/22-rdf-syntax-ns#"
   xmlns:svg="http://www.w3.org/2000/svg"
   xmlns="http://www.w3.org/2000/svg"
   version="1.1"
   id="svg2"
   viewBox="0 0 99.999997 100"
   height="100"
   width="100">
  <defs
     id="defs4" />
  <metadata
     id="metadata7">
    <rdf:RDF>
      <cc:Work
         rdf:about="">
        <dc:format>image/svg+xml</dc:format>
        <dc:type
           rdf:resource="http://purl.org/dc/dcmitype/StillImage" />
        <dc:title></dc:title>
      </cc:Work>
    </rdf:RDF>
  </metadata>
  <g
     transform="translate(0,-952.36216)"
     id="layer1">
    <path
       id="rect4148"
       transform="translate(0,952.36216)"
       d="M 20 0 C 8.92 0 0 8.92 0 20 L 0 80 C 0 91.08 8.92 100 20 100 L 80 100 C 91.08 100 100 91.08 100 80 L 100 20 C 100 8.92 91.08 0 80 0 L 20 0 z M 52.695312 14.564453 C 72.841119 14.564453 86.5 27.136794 86.5 44.919922 C 86.5 58.454371 77.271736 68.746094 67.632812 68.746094 C 62.470735 68.746094 59.13555 66.074596 57.445312 62.044922 C 54.704386 65.943194 50.777312 68.746094 45.615234 68.746094 C 37.575184 68.746094 32.824219 63.228403 32.824219 54.90625 C 32.824219 39.313163 43.923892 30.333984 54.248047 30.333984 C 57.400112 30.333984 60.003554 31.69201 61.785156 34.539062 L 64.755859 31.953125 C 67.085647 32.172129 68.86652 32.611144 69.962891 33.443359 C 68.409699 38.261448 66.856569 46.188822 65.851562 50.4375 C 65.166331 53.284552 64.527344 55.869166 64.527344 58.541016 C 64.527344 61.563271 65.668142 63.052734 68.591797 63.052734 C 73.708192 63.052734 79.876953 55.430416 79.876953 44.699219 C 79.876953 30.814363 68.592251 20.390625 52.603516 20.390625 C 35.883866 20.390625 22.910156 32.698243 22.910156 51.050781 C 22.910156 67.82649 35.474026 79.828125 52.878906 79.828125 C 60.78191 79.828125 68.363499 77.682272 75.626953 73.433594 L 78.048828 77.726562 C 70.328553 82.50085 61.32978 85.435547 52.193359 85.435547 C 29.16958 85.435547 13.5 69.885093 13.5 50.744141 C 13.5 40.231947 17.337126 31.515398 25.011719 24.638672 C 32.503583 17.937148 41.77729 14.564453 52.695312 14.564453 z M 55.390625 35.544922 C 52.055832 35.544922 49.177666 37.604259 46.482422 41.677734 C 44.243999 45.006596 42.416016 49.693954 42.416016 54.90625 C 42.416016 59.330131 44.5185 62.833984 48.21875 62.833984 C 53.289463 62.833984 55.573551 57.534447 56.669922 53.767578 C 58.177431 48.730485 59.272993 43.867206 60.003906 39.136719 C 59.501403 36.990479 57.948823 35.544922 55.390625 35.544922 z "
       style="opacity:1;fill:#ffffff;fill-opacity:1;stroke:none;stroke-width:0;stroke-miterlimit:4;stroke-dasharray:none;stroke-opacity:0" />
  </g>
</svg>
