<?xml version="1.0" encoding="UTF-8" standalone="no"?>
<svg
   xmlns:dc="http://purl.org/dc/elements/1.1/"
   xmlns:cc="http://creativecommons.org/ns#"
   xmlns:rdf="http://www.w3.org/1999/02/22-rdf-syntax-ns#"
   xmlns:svg="http://www.w3.org/2000/svg"
   xmlns="http://www.w3.org/2000/svg"
   version="1.1"
   id="svg4149"
   viewBox="0 0 100 100"
   height="100"
   width="100">
  <defs
     id="defs4151" />
  <metadata
     id="metadata4154">
    <rdf:RDF>
      <cc:Work
         rdf:about="">
        <dc:format>image/svg+xml</dc:format>
        <dc:type
           rdf:resource="http://purl.org/dc/dcmitype/StillImage" />
        <dc:title></dc:title>
      </cc:Work>
    </rdf:RDF>
  </metadata>
  <g
     transform="translate(0,-952.36216)"
     id="layer1">
    <path
       id="rect4697"
       transform="translate(0,952.36216)"
       d="M 11 0 C 4.906 0 0 4.906 0 11 L 0 89 C 0 95.094 4.906 100 11 100 L 89 100 C 95.094 100 100 95.094 100 89 L 100 11 C 100 4.906 95.094 0 89 0 L 11 0 z M 52.769531 13 C 73.467278 13 87.5 26.303518 87.5 45.123047 C 87.5 59.446284 78.020191 70.339844 68.117188 70.339844 C 62.813683 70.339844 59.386936 67.512571 57.650391 63.248047 C 54.834371 67.37351 50.797645 70.339844 45.494141 70.339844 C 37.233815 70.339844 32.353516 64.498575 32.353516 55.691406 C 32.353516 39.189553 43.758226 29.6875 54.365234 29.6875 C 57.603657 29.6875 60.278962 31.12374 62.109375 34.136719 L 65.160156 31.402344 C 67.553773 31.634111 69.383358 32.097799 70.509766 32.978516 C 68.914021 38.077403 67.317697 46.466599 66.285156 50.962891 C 65.581151 53.975869 64.925781 56.711498 64.925781 59.539062 C 64.925781 62.737455 66.097808 64.3125 69.101562 64.3125 C 74.358133 64.3125 80.695312 56.247237 80.695312 44.890625 C 80.695313 30.196559 69.102565 19.164062 52.675781 19.164062 C 35.498059 19.164062 22.167969 32.191157 22.167969 51.613281 C 22.167969 69.366679 35.075304 82.066406 52.957031 82.066406 C 61.076556 82.066406 68.867625 79.795119 76.330078 75.298828 L 78.816406 79.841797 C 70.884617 84.89433 61.638686 88 52.251953 88 C 28.597385 88 12.5 71.543597 12.5 51.287109 C 12.5 40.162265 16.443269 30.939612 24.328125 23.662109 C 32.025246 16.570021 41.552385 13 52.769531 13 z M 55.539062 35.203125 C 52.112905 35.203125 49.155805 37.382482 46.386719 41.693359 C 44.086969 45.216227 42.208984 50.175337 42.208984 55.691406 C 42.208984 60.373112 44.368295 64.082031 48.169922 64.082031 C 53.379559 64.082031 55.725155 58.472731 56.851562 54.486328 C 58.400373 49.155673 59.528358 44.010086 60.279297 39.003906 C 59.763027 36.732584 58.167348 35.203125 55.539062 35.203125 z "
       style="opacity:1;fill:#ffffff;fill-opacity:1;stroke:none;stroke-width:0;stroke-miterlimit:4;stroke-dasharray:none;stroke-opacity:0" />
  </g>
</svg>
