<?xml version="1.0" encoding="UTF-8" standalone="no"?>
<svg
   xmlns:dc="http://purl.org/dc/elements/1.1/"
   xmlns:cc="http://creativecommons.org/ns#"
   xmlns:rdf="http://www.w3.org/1999/02/22-rdf-syntax-ns#"
   xmlns:svg="http://www.w3.org/2000/svg"
   xmlns="http://www.w3.org/2000/svg"
   version="1.1"
   id="svg2"
   viewBox="0 0 100 100"
   height="100"
   width="100">
  <defs
     id="defs4" />
  <metadata
     id="metadata7">
    <rdf:RDF>
      <cc:Work
         rdf:about="">
        <dc:format>image/svg+xml</dc:format>
        <dc:type
           rdf:resource="http://purl.org/dc/dcmitype/StillImage" />
        <dc:title></dc:title>
      </cc:Work>
    </rdf:RDF>
  </metadata>
  <g
     transform="translate(0,-952.36216)"
     id="layer1">
    <path
       id="rect3448"
       d="m 11.5,952.36213 c -6.3710003,0 -11.50000025,5.129 -11.50000025,11.5 l 0,76.99997 c 0,6.371 5.12899995,11.5001 11.50000025,11.5001 l 77,0 c 6.371001,0 11.5,-5.1291 11.5,-11.5001 l 0,-76.99997 c 0,-6.371 -5.128999,-11.5 -11.5,-11.5 l -77,0 z m 61.800781,11.5 10.898439,0 c 2.382201,0 4.30078,1.91858 4.30078,4.30078 l 0,10.89844 c 0,2.3822 -1.918579,4.30078 -4.30078,4.30078 l -10.898439,0 C 70.918581,983.36213 69,981.44355 69,979.06135 l 0,-10.89844 c 0,-2.3822 1.918581,-4.30078 4.300781,-4.30078 z M 50,983.06135 A 19.299999,19.299999 0 0 1 69.300781,1002.3621 19.299999,19.299999 0 0 1 50,1021.6629 19.299999,19.299999 0 0 1 30.699221,1002.3621 19.299999,19.299999 0 0 1 50,983.06135 Z m -38.5,11.80078 8.667968,0 a 30.799999,30.799999 0 0 0 -0.96875,7.49997 A 30.799999,30.799999 0 0 0 50,1033.1629 30.799999,30.799999 0 0 0 80.800781,1002.3621 30.799999,30.799999 0 0 0 79.84375,994.86213 l 8.65625,0 0,41.99997 c 0,2.216 -1.783999,4 -4,4 l -69,0 c -2.216,0 -4,-1.784 -4,-4 l 0,-41.99997 z"
       style="fill:#ffffff;fill-opacity:1;fill-rule:evenodd;stroke:none;stroke-width:1.58599997;stroke-linecap:butt;stroke-linejoin:miter;stroke-miterlimit:4;stroke-dasharray:none;stroke-opacity:1" />
  </g>
</svg>
